<?xml version="1.0" encoding="utf-8"?>
<!-- Generator: Adobe Illustrator 26.0.1, SVG Export Plug-In . SVG Version: 6.00 Build 0)  -->
<svg version="1.1" id="Layer_1" xmlns="http://www.w3.org/2000/svg" xmlns:xlink="http://www.w3.org/1999/xlink" x="0px" y="0px"
	 viewBox="0 0 239 93" style="enable-background:new 0 0 239 93;" xml:space="preserve">
<style type="text/css">
	.st0{fill:#FFFFFF;}
</style>
<g>
	<g>
		<g>
			<g>
				<path class="st0" d="M107.87,4.97c3.15,0,5.8,1.56,7.42,4.01c0,0,1.29,1.92,2.18,2.42c0.89,0.51,2.2,0.78,3.08,0.6
					c0.85-0.19,1.39-0.36,0.98-1.83c-1.71-5.94-7.11-10.07-13.66-10.07c-7.96,0-14.2,6.13-14.2,14.14c0,8,6.25,14.14,14.2,14.14
					c6.36,0,11.33-3.62,13.42-9.47c0.64-1.7,0.12-1.92,0.12-1.92s-0.52-0.73-2.66-0.25c-2.13,0.51-3.07,2.18-3.07,2.18
					c-1.58,2.71-4.47,4.57-7.81,4.57c-5.05,0-9.08-4.25-9.08-9.25C98.79,9.16,102.82,4.97,107.87,4.97z"/>
				<path class="st0" d="M62.28,14.23c0-8.01-6.21-14.14-14.13-14.14C40.22,0.09,34,6.22,34,14.23c0,8,6.21,14.14,14.14,14.14
					C56.06,28.37,62.28,22.23,62.28,14.23z M39.09,14.23c0-5.07,4.01-9.26,9.05-9.26c5.03,0,9.04,4.2,9.04,9.26
					c0,5-4.01,9.25-9.04,9.25C43.1,23.47,39.09,19.22,39.09,14.23z"/>
				<path class="st0" d="M138.65,28.37c7.93,0,14.14-6.14,14.14-14.14c0-8.01-6.21-14.14-14.14-14.14
					c-7.92,0-14.15,6.13-14.15,14.14C124.49,22.23,130.73,28.37,138.65,28.37z M138.65,4.97c5.03,0,9.05,4.2,9.05,9.26
					c0,5-4.02,9.25-9.05,9.25c-5.04,0-9.05-4.25-9.05-9.25C129.6,9.16,133.61,4.97,138.65,4.97z"/>
				<path class="st0" d="M72.18,16.64l12.13,0.15c1.62,0.07,2.05,0.87,1.47,2.29c-1.04,2.59-4.64,4.64-7.78,4.61
					c-3.86-0.05-5.8-2-7.26-3.54c-1.5-1.55-4.21-1.58-5.08-1.25c-0.88,0.33-0.47,1.66-0.11,2.38c2.33,4.53,7.4,7.02,12.2,7.09
					c5.1,0.06,9.69-2.41,12.36-6.73c2.67-4.33,1.52-9.58-4.59-9.65L71.7,11.81c-2.02-0.02-2.22-1.3-1.63-2.5
					c1.3-2.66,4.46-4.58,8.1-4.54C81.82,4.8,83.78,6.95,85,8.13c1.28,1.26,3.97,1.66,5.15,1.07c0.6-0.3,0.57-1.12,0.02-2.15
					c-2.32-4.43-7.22-6.88-12.23-6.94c-4.27-0.06-9.12,1.91-12.04,6.45C63.49,10.31,63.62,16.55,72.18,16.64z"/>
				<path class="st0" d="M7.05,39.29C7.95,39.2,8,38.09,8,38.09V25.23c2.43,1.96,5.57,3.14,9.02,3.14c7.92,0,14.15-6.14,14.15-14.14
					c0-8.01-6.23-14.14-14.15-14.14c-7.93,0-14.14,6.13-14.14,14.14c0,0.34,0,18.72,0,18.72s-0.24,2.48,0.94,4.22
					C4.65,38.39,5.8,39.24,7.05,39.29z M17.03,4.96c5.01,0,9.08,4.14,9.08,9.24c0,5.1-4.07,9.23-9.08,9.23
					c-5.01,0-9.08-4.13-9.08-9.23C7.95,9.1,12.01,4.96,17.03,4.96z"/>
			</g>
		</g>
	</g>
	<g>
		<g>
			<g>
				<g>
					<path class="st0" d="M21.9,79.4c0.89,0,12.81,0,12.81,0v-4.72c0,0-4.75,0-5.56,0c0-0.86,0-14.04,0-14.91c0.8,0,5.16,0,5.16,0
						v-4.76H2.88v4.76c0,0,4.41,0,5.2,0c0,0.87,0,14.05,0,14.91c-0.79,0-5.6,0-5.6,0v4.72c0,0,12.46,0,13.36,0c0,0.82,0,7.28,0,8.09
						c-0.9,0-15.61,0-15.61,0v4.76h36.83v-4.76c0,0-14.25,0-15.16,0C21.9,86.68,21.9,80.22,21.9,79.4z M14.1,74.68
						c0-0.86,0-14.04,0-14.91c0.83,0,8.27,0,9.1,0c0,0.87,0,14.05,0,14.91C22.36,74.68,14.93,74.68,14.1,74.68z"/>
					<path class="st0" d="M114.95,81.15V55.01H85.42v4.76c0,0,22.64,0,23.56,0c0,0.81,0,6.54,0,7.34c-0.92,0-23.56,0-23.56,0v4.66
						c0,0,22.64,0,23.56,0c0,0.87,0,9.37,0,9.37H114.95z"/>
					<path class="st0" d="M100.34,76.64h-6.01c0,0,0,9.93,0,10.81c-0.89,0-12.06,0-12.06,0v4.81h36.83v-4.81c0,0-17.85,0-18.77,0
						C100.34,86.57,100.34,76.64,100.34,76.64z"/>
					<rect x="41.24" y="87.49" class="st0" width="36.84" height="4.76"/>
					<path class="st0" d="M64.21,64.49c-0.6-1.24-1.18-3.12-1.18-4.83v-5.05h-6.43v5.05c0,1.71-0.58,3.58-1.18,4.83
						c-1.1,2.3-3.02,5.11-7.82,7.57c-2.96,1.51-6.2,2.59-6.2,2.59l3.61,3.98c0,0,5.39-1.94,8.6-4.09c2.72-1.82,5.41-4.62,6.21-5.88
						c0.8,1.26,3.69,4.25,6.21,5.88c3.23,2.11,8.59,4.09,8.59,4.09l3.61-3.98c0,0-3.24-1.08-6.2-2.59
						C67.23,69.61,65.31,66.79,64.21,64.49z"/>
				</g>
			</g>
		</g>
		<g>
			<rect x="232.76" y="54.07" class="st0" width="6.01" height="38.84"/>
			<rect x="154.03" y="54.07" class="st0" width="6.01" height="38.84"/>
			<polygon class="st0" points="179.2,79.85 173.41,79.85 173.41,92.87 200.38,92.87 200.38,88.32 179.2,88.32 			"/>
			<path class="st0" d="M185.43,65.5c0-6.44-4.25-11.48-9.66-11.48c-5.33,0-9.84,5.26-9.84,11.48c0,6.34,4.41,11.48,9.84,11.48
				C181.18,76.98,185.43,71.95,185.43,65.5z M171.61,65.55c0-3.94,1.78-6.91,4.14-6.91c2.35,0,4,2.84,4,6.91
				c0,4.13-1.67,7.02-4.07,7.02C173.36,72.57,171.61,69.55,171.61,65.55z"/>
			<polygon class="st0" points="194.69,54.07 194.69,62.59 192.27,62.59 192.27,54.07 187.61,54.07 187.61,80.7 192.27,80.7 
				192.27,67.58 194.69,67.58 194.69,81.59 199.56,81.59 199.56,54.07 			"/>
			<path class="st0" d="M137.35,54.62c-6.86,0-12.42,6.68-12.42,14.91s5.56,14.91,12.42,14.91s12.42-6.68,12.42-14.91
				S144.21,54.62,137.35,54.62z M137.35,79.37c-3.45,0-6.25-4.4-6.25-9.84c0-5.43,2.8-9.84,6.25-9.84c3.45,0,6.25,4.4,6.25,9.84
				C143.6,74.97,140.8,79.37,137.35,79.37z"/>
			<path class="st0" d="M231.18,80.17c-1.84-1.59-3.58-3.87-4.59-6.58c-1.33-3.58-1.07-6.11-1.07-13.22V54.9h-2.77h-2.74v5.47
				c0,7.06-0.54,11.04-0.94,12.83c-0.31,1.41-0.96,2.95-1.13,3.51c-0.17-0.56-0.82-2.1-1.13-3.51c-0.39-1.78-0.94-5.77-0.94-12.83
				V54.9h-2.74h-2.77v5.47c0,7.11,0.26,9.65-1.07,13.22c-1.01,2.71-2.76,4.99-4.59,6.58c-0.21,0.18-0.62,0.51-0.62,0.51l3.17,3.25
				c0,0,0.36-0.26,0.55-0.45c1.23-1.23,2.35-2.61,3.15-3.86c0.82-1.29,1.55-2.6,2.19-5.58c0.53,2.64,0.92,3.64,1.71,5.54
				c0.69,1.66,1.77,3.08,2.67,4.38c0.16,0.22,0.44,0.47,0.44,0.47s0.28-0.25,0.44-0.47c0.9-1.3,1.98-2.72,2.67-4.38
				c0.79-1.9,1.18-2.9,1.71-5.54c0.64,2.98,1.36,4.29,2.19,5.58c0.8,1.25,1.91,2.63,3.15,3.86c0.19,0.19,0.55,0.45,0.55,0.45
				l3.17-3.25C231.8,80.69,231.39,80.36,231.18,80.17z"/>
		</g>
	</g>
</g>
</svg>
